# xmcd
#
# Track frame offsets:
#	150
#	13208
#	30228
#	53448
#	67325
#	76073
#	94288
#	110645
#	117830
#	128738
#	137338
#	147090
#	166345
#	171213
#	180448
#	194693
#	209393
#	221555
#
# Disc length: 3259 seconds
#
# Revision: 11
# Processed by: cddbd v1.5.2PL0 Copyright (c) Steve Scherf et al.
# Submitted via: audiograbber 1.83.01
#
DISCID=fb0cb912
DTITLE=Ry Cooder - Music By Ry Cooder (Disc1)
DYEAR=1995
DGENRE=Blues
TTITLE0=Paris, Texas 
TTITLE1=Theme From Southern Comfort 
TTITLE2=Theme From Alamo Bay
TTITLE3=Across The Borderline 
TTITLE4=Highway 
TTITLE5=Bomber Bash 
TTITLE6=Greenhouse 
TTITLE7=Nice Bike 
TTITLE8=I Like Your Eyes 
TTITLE9=Main Theme 
TTITLE10=See You In Hell, Blind Boy 
TTITLE11=Feellin' Bad Blues 
TTITLE12=Swamp Walk 
TTITLE13=Angola 
TTITLE14=Viola Lee Blues
TTITLE15=The Long Riders 
TTITLE16=Archie's Funeral 
TTITLE17=Jesse James 
EXTD=YEAR: 1995
EXTT0=
EXTT1=
EXTT2=
EXTT3=
EXTT4=
EXTT5=
EXTT6=
EXTT7=
EXTT8=
EXTT9=
EXTT10=
EXTT11=
EXTT12=
EXTT13=
EXTT14=
EXTT15=
EXTT16=
EXTT17=
PLAYORDER=
